<svg width="285" height="181" viewBox="0 0 285 181" fill="none" xmlns="http://www.w3.org/2000/svg">
<g opacity="0.2">
<path d="M183.427 147.844H260.065V38.4537C260.065 34.9042 257.161 32 253.611 32H184.072C176.812 32 171.003 37.8084 171.003 45.0688V135.26C170.842 142.359 176.489 147.844 183.427 147.844Z" fill="#F3E8FA"/>
<path d="M204.079 127.677V118.964V107.373C204.079 106.286 205.42 105.771 206.147 106.579C206.601 107.084 207.387 107.105 207.867 106.625L208.657 105.835C209.508 104.984 210.894 105.002 211.723 105.874C212.567 106.763 213.984 106.763 214.828 105.874C215.657 105.002 217.043 104.984 217.895 105.835L217.995 105.936C218.87 106.81 220.283 106.828 221.179 105.974L221.339 105.822C222.261 104.944 223.694 104.897 224.672 105.711L225.216 106.165C226.116 106.915 227.448 106.82 228.232 105.949C229.054 105.036 230.467 104.981 231.357 105.828L231.643 106.101C232.438 106.858 233.71 106.772 234.396 105.915C235.093 105.044 236.392 104.972 237.181 105.761L237.515 106.095C238.277 106.856 239.526 106.806 240.224 105.985L240.354 105.832C241.037 105.028 242.284 105.047 242.943 105.871C243.615 106.71 244.892 106.71 245.564 105.871C246.223 105.047 247.47 105.028 248.153 105.832L248.283 105.985C248.98 106.806 250.23 106.856 250.992 106.095L251.326 105.761C252.115 104.972 253.414 105.044 254.111 105.915C254.797 106.772 256.069 106.858 256.864 106.101L257.167 105.813C258.047 104.974 259.446 105.028 260.259 105.932C261.047 106.807 262.391 106.889 263.279 106.117L263.686 105.763C264.651 104.923 266.098 104.956 267.024 105.839L267.167 105.974C268.063 106.828 269.476 106.81 270.351 105.936L270.451 105.835C271.303 104.984 272.688 105.002 273.518 105.874C274.362 106.763 275.778 106.763 276.622 105.874C277.452 105.002 278.838 104.984 279.689 105.835L280.478 106.625C280.959 107.105 281.744 107.084 282.199 106.579C282.926 105.771 284.267 106.286 284.267 107.373V127.677C284.267 139.293 274.909 148.651 263.292 148.651H220.052H203.756H182.782C194.56 148.651 204.079 139.293 204.079 127.677Z" fill="url(#paint0_linear)"/>
</g>
<g opacity="0.2">
<path d="M100.84 147.844H24.2017V38.4537C24.2017 34.9042 27.1058 32 30.6554 32H100.194C107.455 32 113.263 37.8084 113.263 45.0688V135.26C113.424 142.359 107.777 147.844 100.84 147.844Z" fill="#F3E8FA"/>
<path d="M80.1876 127.677V118.964V107.373C80.1876 106.286 78.847 105.771 78.1198 106.579C77.6651 107.084 76.8799 107.105 76.3994 106.625L75.61 105.835C74.7586 104.984 73.3727 105.002 72.5434 105.874C71.6992 106.763 70.2828 106.763 69.4386 105.874C68.6093 105.002 67.2235 104.984 66.3721 105.835L66.2717 105.936C65.3968 106.81 63.9837 106.828 63.0877 105.974L62.9276 105.822C62.0059 104.944 60.5726 104.897 59.5948 105.711L59.0505 106.165C58.1503 106.915 56.8181 106.82 56.0342 105.949C55.2126 105.036 53.7994 104.981 52.9101 105.828L52.6237 106.101C51.8289 106.858 50.5565 106.772 49.8709 105.915C49.1739 105.044 47.8743 104.972 47.0854 105.761L46.7512 106.095C45.9896 106.856 44.7401 106.806 44.0426 105.985L43.9124 105.832C43.2292 105.028 41.9825 105.047 41.3235 105.871C40.6517 106.71 39.3745 106.71 38.7028 105.871C38.0437 105.047 36.797 105.028 36.1138 105.832L35.9837 105.985C35.2861 106.806 34.0366 106.856 33.275 106.095L32.9409 105.761C32.1519 104.972 30.8524 105.044 30.1554 105.915C29.4698 106.772 28.1973 106.858 27.4026 106.101L27.0997 105.813C26.2193 104.974 24.8205 105.028 24.0073 105.932C23.2196 106.807 21.8757 106.889 20.9871 106.117L20.581 105.763C19.6151 104.923 18.169 104.956 17.2421 105.839L17.0999 105.974C16.2039 106.828 14.7908 106.81 13.9159 105.936L13.8155 105.835C12.9641 104.984 11.5783 105.002 10.749 105.874C9.90479 106.763 8.48834 106.763 7.64414 105.874C6.81483 105.002 5.42903 104.984 4.57761 105.835L3.78822 106.625C3.30768 107.105 2.52244 107.084 2.06782 106.579C1.34059 105.771 0 106.286 0 107.373V127.677C0 139.293 9.35791 148.651 20.9746 148.651H64.2146H80.5103H101.485C89.7068 148.651 80.1876 139.293 80.1876 127.677Z" fill="url(#paint1_linear)"/>
</g>
<path d="M195.755 179.402H77.0703V9.99454C77.0703 4.49754 81.5679 0 87.0648 0H194.756C206 0 214.995 8.99508 214.995 20.2389V159.913C215.245 170.907 206.5 179.402 195.755 179.402Z" fill="#F3E8FA"/>
<g opacity="0.3">
<path d="M145.608 87.5773L165.569 99.6252L160.272 76.9183L177.908 61.6404L154.684 59.6378L145.608 38.2551L136.531 59.6378L113.308 61.6404L130.911 76.9183L125.646 99.6252L145.608 87.5773Z" fill="#8F78D0"/>
</g>
<path d="M163.773 148.169V134.676V116.725C163.773 115.042 161.697 114.245 160.571 115.497C159.867 116.279 158.65 116.311 157.906 115.567L156.684 114.344C155.365 113.026 153.219 113.053 151.935 114.405C150.627 115.781 148.434 115.781 147.127 114.405C145.842 113.053 143.696 113.026 142.378 114.344L142.222 114.5C140.867 115.855 138.679 115.881 137.291 114.56L137.043 114.324C135.616 112.964 133.396 112.891 131.882 114.153L131.039 114.855C129.645 116.017 127.582 115.869 126.368 114.52C125.096 113.106 122.907 113.022 121.53 114.334L121.086 114.756C119.855 115.928 117.885 115.795 116.823 114.468C115.744 113.118 113.731 113.007 112.509 114.229L111.992 114.746C110.812 115.926 108.877 115.847 107.797 114.577L107.596 114.339C106.538 113.095 104.607 113.123 103.586 114.399C102.546 115.7 100.568 115.7 99.5276 114.399C98.507 113.123 96.5764 113.095 95.5183 114.339L95.3167 114.577C94.2365 115.847 92.3015 115.926 91.1221 114.746L90.6045 114.229C89.3827 113.007 87.3702 113.118 86.2908 114.468C85.229 115.795 83.2584 115.928 82.0276 114.756L81.5586 114.309C80.1952 113.011 78.029 113.094 76.7696 114.494C75.5497 115.849 73.4685 115.976 72.0924 114.78L71.4634 114.233C69.9677 112.932 67.7281 112.983 66.2928 114.35L66.0725 114.56C64.6849 115.881 62.4965 115.855 61.1416 114.5L60.9861 114.344C59.6676 113.026 57.5215 113.053 56.2372 114.405C54.9298 115.781 52.7362 115.781 51.4289 114.405C50.1446 113.053 47.9985 113.026 46.6799 114.344L45.4574 115.567C44.7132 116.311 43.4972 116.279 42.7931 115.497C41.6669 114.245 39.5908 115.042 39.5908 116.725V148.169C39.5908 166.159 54.0829 180.651 72.0731 180.651H139.036H164.273H196.755C178.515 180.651 163.773 166.159 163.773 148.169Z" fill="url(#paint2_linear)"/>
<defs>
<linearGradient id="paint0_linear" x1="309.482" y1="88.7525" x2="246.633" y2="208.985" gradientUnits="userSpaceOnUse">
<stop offset="0.0629402" stop-color="#87BEF5"/>
<stop offset="0.275105" stop-color="#A38EF8"/>
<stop offset="0.520066" stop-color="#C777EF"/>
<stop offset="0.98573" stop-color="#D66791"/>
</linearGradient>
<linearGradient id="paint1_linear" x1="-25.2156" y1="88.7525" x2="37.6332" y2="208.985" gradientUnits="userSpaceOnUse">
<stop offset="0.0629402" stop-color="#87BEF5"/>
<stop offset="0.275105" stop-color="#A38EF8"/>
<stop offset="0.520066" stop-color="#C777EF"/>
<stop offset="0.98573" stop-color="#D66791"/>
</linearGradient>
<linearGradient id="paint2_linear" x1="0.540864" y1="87.8891" x2="97.8713" y2="274.086" gradientUnits="userSpaceOnUse">
<stop offset="0.0629402" stop-color="#87BEF5"/>
<stop offset="0.275105" stop-color="#A38EF8"/>
<stop offset="0.520066" stop-color="#C777EF"/>
<stop offset="0.98573" stop-color="#D66791"/>
</linearGradient>
</defs>
</svg>
