<svg width="14" height="20" viewBox="0 0 14 20" fill="none" xmlns="http://www.w3.org/2000/svg">
<path fill-rule="evenodd" clip-rule="evenodd" d="M1.17725 3.61034C1.17725 2.29786 2.28309 1.17574 3.71526 1.17574H6.25326V6.04493H3.71526C2.28309 6.04493 1.17725 4.92282 1.17725 3.61034ZM0.00150701 3.61034C0.00150701 1.61743 1.66527 0 3.71526 0H6.25326H6.57242H7.42901H7.74816H10.2862C12.3362 0 13.9999 1.61743 13.9999 3.61034C13.9999 4.99571 13.1959 6.19963 12.0171 6.80492C13.1959 7.41021 13.9999 8.61413 13.9999 9.9995C13.9999 11.9924 12.3362 13.6098 10.2862 13.6098C9.13682 13.6098 8.10888 13.1014 7.4275 12.3035V12.4341V12.7794V13.6099V13.9552V16.3898C7.4275 18.3827 5.76374 20.0001 3.71375 20.0001C1.66376 20.0001 0 18.3827 0 16.3898C0 15.004 0.804455 13.7998 1.98384 13.1946C0.804455 12.5895 0 11.3853 0 9.99953C0 8.61386 0.804337 7.4097 1.98358 6.80455C0.80516 6.19914 0.00150701 4.99542 0.00150701 3.61034ZM7.4275 7.69554C7.57486 7.52298 7.73842 7.36395 7.91592 7.22068H7.74816H7.42901H7.4275V7.56494V7.69554ZM3.71375 7.56494C2.28158 7.56494 1.17574 8.68705 1.17574 9.99953C1.17574 11.312 2.28158 12.4341 3.71375 12.4341H6.25176V7.56494H3.71375ZM3.71375 18.8244C5.14592 18.8244 6.25176 17.7022 6.25176 16.3898V13.9552H3.71375C2.28158 13.9552 1.17574 15.0773 1.17574 16.3898C1.17574 17.7022 2.28158 18.8244 3.71375 18.8244ZM10.2862 1.17574H7.74816V6.04493H10.2862C11.7183 6.04493 12.8242 4.92282 12.8242 3.61034C12.8242 2.29786 11.7183 1.17574 10.2862 1.17574ZM12.8242 9.9995C12.8242 11.312 11.7183 12.4341 10.2862 12.4341C8.854 12.4341 7.74816 11.312 7.74816 9.9995C7.74816 8.68702 8.854 7.5649 10.2862 7.5649C11.7183 7.5649 12.8242 8.68702 12.8242 9.9995Z" fill="white"/>
</svg>
