<svg width="43" height="43" viewBox="0 0 43 43" fill="none" xmlns="http://www.w3.org/2000/svg">
<path fill-rule="evenodd" clip-rule="evenodd" d="M5.99268 8.63429C5.99268 7.24419 6.54489 5.91103 7.52784 4.92808C8.51079 3.94514 9.84395 3.39292 11.234 3.39292L25.1053 3.39292C25.8003 3.39307 26.4668 3.66927 26.9582 4.16078L36.673 13.8757C37.1646 14.367 37.4408 15.0335 37.4409 15.7285L37.4409 34.8411C37.4409 36.2312 36.8887 37.5644 35.9057 38.5474C34.9228 39.5303 33.5896 40.0825 32.1995 40.0825H11.234C9.84395 40.0825 8.51079 39.5303 7.52784 38.5474C6.54489 37.5644 5.99268 36.2312 5.99268 34.8411L5.99268 8.63429ZM24.3375 13.8757L24.3375 6.01361L34.8202 16.4963H26.9582C26.2631 16.4963 25.5965 16.2202 25.1051 15.7288C24.6136 15.2373 24.3375 14.5707 24.3375 13.8757ZM12.5444 21.7377C12.1969 21.7377 11.8636 21.8758 11.6178 22.1215C11.3721 22.3672 11.234 22.7005 11.234 23.0481C11.234 23.3956 11.3721 23.7289 11.6178 23.9746C11.8636 24.2204 12.1969 24.3584 12.5444 24.3584H30.8892C31.2367 24.3584 31.57 24.2204 31.8157 23.9746C32.0615 23.7289 32.1995 23.3956 32.1995 23.0481C32.1995 22.7005 32.0615 22.3672 31.8157 22.1215C31.57 21.8758 31.2367 21.7377 30.8892 21.7377H12.5444ZM11.234 28.2894C11.234 27.9419 11.3721 27.6086 11.6178 27.3629C11.8636 27.1171 12.1969 26.9791 12.5444 26.9791H30.8892C31.2367 26.9791 31.57 27.1171 31.8157 27.3629C32.0615 27.6086 32.1995 27.9419 32.1995 28.2894C32.1995 28.637 32.0615 28.9703 31.8157 29.216C31.57 29.4617 31.2367 29.5998 30.8892 29.5998H12.5444C12.1969 29.5998 11.8636 29.4617 11.6178 29.216C11.3721 28.9703 11.234 28.637 11.234 28.2894ZM11.234 33.5308C11.234 33.1833 11.3721 32.85 11.6178 32.6043C11.8636 32.3585 12.1969 32.2205 12.5444 32.2205H23.0271C23.3747 32.2205 23.708 32.3585 23.9537 32.6043C24.1994 32.85 24.3375 33.1833 24.3375 33.5308C24.3375 33.8783 24.1994 34.2116 23.9537 34.4574C23.708 34.7031 23.3747 34.8411 23.0271 34.8411H12.5444C12.1969 34.8411 11.8636 34.7031 11.6178 34.4574C11.3721 34.2116 11.234 33.8783 11.234 33.5308Z" fill="black"/>
</svg>
