<svg width="43" height="43" viewBox="0 0 43 43" fill="none" xmlns="http://www.w3.org/2000/svg">
<path d="M17.0037 20.8645H20.795C22.8801 20.8645 24.8799 21.6928 26.3543 23.1672C27.8287 24.6416 28.657 26.6414 28.657 28.7265H16.4254L16.4272 30.4736H30.4042V28.7265C30.3987 26.8675 29.8616 25.0489 28.8562 23.4851H33.8984C35.5499 23.4847 37.1677 23.9524 38.5642 24.834C39.9607 25.7156 41.0786 26.975 41.7884 28.4662C37.6565 33.919 30.9667 37.4621 23.4157 37.4621C18.5919 37.4621 14.5053 36.4313 11.1858 34.6231L11.1858 18.3678C13.3114 18.6723 15.3186 19.5337 17.0037 20.8645ZM9.43869 33.9679C9.43869 34.4313 9.25462 34.8756 8.92697 35.2033C8.59932 35.5309 8.15493 35.715 7.69157 35.715H4.19732C3.73395 35.715 3.28957 35.5309 2.96192 35.2033C2.63427 34.8756 2.4502 34.4313 2.4502 33.9679L2.4502 18.2438C2.4502 17.7804 2.63427 17.336 2.96192 17.0084C3.28957 16.6807 3.73395 16.4967 4.19732 16.4967H7.69157C8.15493 16.4967 8.59932 16.6807 8.92697 17.0084C9.25462 17.336 9.43869 17.7804 9.43869 18.2438L9.43869 33.9679ZM32.1513 9.50816C33.5414 9.50816 34.8746 10.0604 35.8575 11.0433C36.8405 12.0263 37.3927 13.3594 37.3927 14.7495C37.3927 16.1396 36.8405 17.4728 35.8575 18.4557C34.8746 19.4387 33.5414 19.9909 32.1513 19.9909C30.7612 19.9909 29.428 19.4387 28.4451 18.4557C27.4621 17.4728 26.9099 16.1396 26.9099 14.7495C26.9099 13.3594 27.4621 12.0263 28.4451 11.0433C29.428 10.0604 30.7612 9.50816 32.1513 9.50816ZM19.9214 4.26678C21.3115 4.26678 22.6447 4.819 23.6276 5.80195C24.6106 6.78489 25.1628 8.11806 25.1628 9.50816C25.1628 10.8983 24.6106 12.2314 23.6276 13.2144C22.6447 14.1973 21.3115 14.7495 19.9214 14.7495C18.5313 14.7495 17.1982 14.1973 16.2152 13.2144C15.2323 12.2314 14.6801 10.8983 14.6801 9.50816C14.6801 8.11806 15.2323 6.78489 16.2152 5.80195C17.1982 4.819 18.5313 4.26678 19.9214 4.26678Z" fill="black"/>
</svg>
