<svg width="43" height="43" viewBox="0 0 43 43" fill="none" xmlns="http://www.w3.org/2000/svg">
<path d="M28.4361 31.0559C28.0284 32.1042 27.3412 32.803 26.5608 32.803H16.7071C15.915 32.803 15.2395 32.1042 14.8318 31.0559H1.86816L1.86816 33.0942C1.92778 33.8411 2.27879 34.5347 2.8454 35.025C3.41201 35.5153 4.14875 35.7631 4.89651 35.7149H38.4413C39.1891 35.7631 39.9258 35.5153 40.4924 35.025C41.059 34.5347 41.41 33.8411 41.4696 33.0942V31.0559L28.4361 31.0559Z" fill="black"/>
<path d="M34.4814 18.7094H37.9757L37.9757 28.7263H34.4814L34.4814 18.7094Z" fill="black"/>
<path d="M8.8569 12.4198H22.8339V12.2916L25.5012 7.76077L7.10978 7.76077C6.63607 7.77299 6.18644 7.97216 5.85909 8.31479C5.53174 8.65741 5.35327 9.11565 5.36266 9.58943L5.36266 28.7263H8.8569L8.8569 12.4198Z" fill="black"/>
<path d="M31.9773 2.10003L25.3149 13.5845C25.1599 13.812 25.0709 14.0779 25.0578 14.3529C25.0447 14.6279 25.108 14.9012 25.2407 15.1424C25.3734 15.3836 25.5702 15.5834 25.8095 15.7195C26.0487 15.8557 26.321 15.923 26.5962 15.914H39.9325C40.2077 15.923 40.48 15.8557 40.7192 15.7195C40.9584 15.5834 41.1553 15.3836 41.288 15.1424C41.4206 14.9012 41.4839 14.6279 41.4708 14.3529C41.4577 14.0779 41.3688 13.812 41.2138 13.5845L34.5514 2.10003C34.42 1.8753 34.2321 1.68889 34.0063 1.55934C33.7805 1.4298 33.5247 1.36163 33.2643 1.36163C33.004 1.36163 32.7482 1.4298 32.5224 1.55934C32.2966 1.68889 32.1087 1.8753 31.9773 2.10003Z" fill="black"/>
</svg>
