<svg width="43" height="43" viewBox="0 0 43 43" fill="none" xmlns="http://www.w3.org/2000/svg">
<path d="M38.616 24.0967L36.8689 25.8439L33.2873 22.2622L35.0344 20.5151C35.214 20.3391 35.4555 20.2404 35.707 20.2404C35.9585 20.2404 36.2 20.3391 36.3797 20.5151L38.616 22.7514C38.9829 23.1183 38.9829 23.7298 38.616 24.0967ZM21.6689 33.8632L32.2565 23.2756L35.8381 26.8572L25.268 37.4622H21.6689V33.8632ZM21.6689 25.2324C13.9466 25.2324 7.69189 28.3597 7.69189 32.2209L7.69189 35.7151H18.1746V32.413L25.1631 25.4245C24.01 25.2848 22.8395 25.2324 21.6689 25.2324ZM21.6689 7.76112C19.8154 7.76112 18.0379 8.49741 16.7273 9.80801C15.4167 11.1186 14.6804 12.8962 14.6804 14.7496C14.6804 16.6031 15.4167 18.3806 16.7273 19.6912C18.0379 21.0018 19.8154 21.7381 21.6689 21.7381C23.5223 21.7381 25.2999 21.0018 26.6105 19.6912C27.9211 18.3806 28.6574 16.6031 28.6574 14.7496C28.6574 12.8962 27.9211 11.1186 26.6105 9.80801C25.2999 8.49741 23.5223 7.76112 21.6689 7.76112Z" fill="black"/>
</svg>
